<svg id="Capa_1" enable-background="new 0 0 512 512" height="512" viewBox="0 0 512 512" width="512" xmlns="http://www.w3.org/2000/svg" xmlns:xlink="http://www.w3.org/1999/xlink"><linearGradient id="SVGID_1_" gradientUnits="userSpaceOnUse" x1="256" x2="256" y1="512" y2="0"><stop offset="0" stop-color="#5558ff"/><stop offset="1" stop-color="#00c0ff"/></linearGradient><g><g><g><path d="m256 0c-140.951 0-256 115.041-256 256 0 140.95 115.041 256 256 256 140.951 0 256-115.041 256-256 0-140.951-115.041-256-256-256zm0 482c-124.617 0-226-101.383-226-226s101.383-226 226-226 226 101.383 226 226-101.383 226-226 226zm-60-241c-24.813 0-45 20.187-45 45s20.187 45 45 45 45-20.187 45-45-20.187-45-45-45zm0 60c-8.271 0-15-6.729-15-15s6.729-15 15-15 15 6.729 15 15-6.729 15-15 15zm179.351-101.217c-8.948-6.122-14.718-14.68-16.685-24.749-9.513-48.692-52.69-84.034-102.666-84.034s-93.153 35.342-102.666 84.035c-1.967 10.068-7.736 18.626-16.685 24.748-34.786 23.798-51.561 64.51-43.779 106.248 7.563 40.563 39.823 73.712 80.273 82.488 22.418 4.864 45.268 2.572 66.026-6.988 10.696-4.925 22.964-4.925 33.66 0 20.581 9.478 43.412 11.894 66.026 6.988 40.451-8.776 72.71-41.925 80.274-82.488 7.783-41.738-8.992-82.45-43.778-106.248zm14.287 100.749c-5.378 28.844-28.342 52.421-57.142 58.669-16.204 3.514-32.496 1.813-47.118-4.92-18.67-8.598-40.085-8.598-58.756 0-14.622 6.734-30.915 8.434-47.117 4.92-28.8-6.248-51.764-29.825-57.142-58.669-5.572-29.883 6.394-59 31.227-75.989 15.364-10.511 25.73-26.051 29.188-43.756 6.767-34.643 37.562-59.787 73.222-59.787s66.455 25.144 73.223 59.786c3.458 17.706 13.825 33.246 29.188 43.757 24.833 16.989 36.798 46.106 31.227 75.989z" fill="url(#SVGID_1_)"/></g></g></g></svg>